<mxfile host="app.diagrams.net" modified="2021-01-21T03:48:23.617Z" agent="5.0 (Windows NT 10.0; Win64; x64) AppleWebKit/537.36 (KHTML, like Gecko) Chrome/87.0.4280.141 Safari/537.36" etag="GFADLXcc6zGnczhtQxUq" version="14.2.6" type="github">
  <diagram name="Page-1" id="52a04d89-c75d-2922-d76d-85b35f80e030">
    <mxGraphModel dx="868" dy="425" grid="1" gridSize="10" guides="1" tooltips="1" connect="1" arrows="1" fold="1" page="1" pageScale="1" pageWidth="1100" pageHeight="850" background="#ffffff" math="0" shadow="0">
      <root>
        <mxCell id="0" />
        <mxCell id="1" parent="0" />
        <mxCell id="z8pSvVmS4jZRjeA3G0dC-6" style="edgeStyle=orthogonalEdgeStyle;rounded=0;orthogonalLoop=1;jettySize=auto;html=1;entryX=0;entryY=0.5;entryDx=0;entryDy=0;" edge="1" parent="1" source="z8pSvVmS4jZRjeA3G0dC-1" target="z8pSvVmS4jZRjeA3G0dC-2">
          <mxGeometry relative="1" as="geometry" />
        </mxCell>
        <mxCell id="z8pSvVmS4jZRjeA3G0dC-7" style="edgeStyle=orthogonalEdgeStyle;rounded=0;orthogonalLoop=1;jettySize=auto;html=1;entryX=0.5;entryY=0;entryDx=0;entryDy=0;" edge="1" parent="1" source="z8pSvVmS4jZRjeA3G0dC-1" target="z8pSvVmS4jZRjeA3G0dC-4">
          <mxGeometry relative="1" as="geometry" />
        </mxCell>
        <mxCell id="z8pSvVmS4jZRjeA3G0dC-1" value="Login" style="rounded=1;whiteSpace=wrap;html=1;" vertex="1" parent="1">
          <mxGeometry x="400" y="60" width="120" height="60" as="geometry" />
        </mxCell>
        <mxCell id="z8pSvVmS4jZRjeA3G0dC-5" style="edgeStyle=orthogonalEdgeStyle;rounded=0;orthogonalLoop=1;jettySize=auto;html=1;entryX=1;entryY=0.5;entryDx=0;entryDy=0;" edge="1" parent="1" source="z8pSvVmS4jZRjeA3G0dC-2" target="z8pSvVmS4jZRjeA3G0dC-1">
          <mxGeometry relative="1" as="geometry" />
        </mxCell>
        <mxCell id="z8pSvVmS4jZRjeA3G0dC-2" value="Reset Password" style="rounded=1;whiteSpace=wrap;html=1;" vertex="1" parent="1">
          <mxGeometry x="580" y="70" width="120" height="40" as="geometry" />
        </mxCell>
        <mxCell id="z8pSvVmS4jZRjeA3G0dC-9" style="edgeStyle=orthogonalEdgeStyle;rounded=0;orthogonalLoop=1;jettySize=auto;html=1;entryX=0;entryY=0.5;entryDx=0;entryDy=0;" edge="1" parent="1" source="z8pSvVmS4jZRjeA3G0dC-4" target="z8pSvVmS4jZRjeA3G0dC-8">
          <mxGeometry relative="1" as="geometry" />
        </mxCell>
        <mxCell id="z8pSvVmS4jZRjeA3G0dC-11" style="edgeStyle=orthogonalEdgeStyle;rounded=0;orthogonalLoop=1;jettySize=auto;html=1;entryX=1;entryY=0.5;entryDx=0;entryDy=0;" edge="1" parent="1" source="z8pSvVmS4jZRjeA3G0dC-4" target="z8pSvVmS4jZRjeA3G0dC-10">
          <mxGeometry relative="1" as="geometry" />
        </mxCell>
        <mxCell id="z8pSvVmS4jZRjeA3G0dC-16" style="edgeStyle=orthogonalEdgeStyle;rounded=0;orthogonalLoop=1;jettySize=auto;html=1;entryX=0.5;entryY=0;entryDx=0;entryDy=0;" edge="1" parent="1" source="z8pSvVmS4jZRjeA3G0dC-4" target="z8pSvVmS4jZRjeA3G0dC-12">
          <mxGeometry relative="1" as="geometry" />
        </mxCell>
        <mxCell id="z8pSvVmS4jZRjeA3G0dC-4" value="eLearning" style="rounded=1;whiteSpace=wrap;html=1;" vertex="1" parent="1">
          <mxGeometry x="400" y="170" width="120" height="60" as="geometry" />
        </mxCell>
        <mxCell id="z8pSvVmS4jZRjeA3G0dC-8" value="Navigation" style="rounded=1;whiteSpace=wrap;html=1;" vertex="1" parent="1">
          <mxGeometry x="580" y="180" width="120" height="40" as="geometry" />
        </mxCell>
        <mxCell id="z8pSvVmS4jZRjeA3G0dC-10" value="Search Course" style="rounded=1;whiteSpace=wrap;html=1;" vertex="1" parent="1">
          <mxGeometry x="220" y="180" width="120" height="40" as="geometry" />
        </mxCell>
        <mxCell id="z8pSvVmS4jZRjeA3G0dC-15" style="edgeStyle=orthogonalEdgeStyle;rounded=0;orthogonalLoop=1;jettySize=auto;html=1;entryX=1;entryY=0.5;entryDx=0;entryDy=0;" edge="1" parent="1" source="z8pSvVmS4jZRjeA3G0dC-12" target="z8pSvVmS4jZRjeA3G0dC-13">
          <mxGeometry relative="1" as="geometry" />
        </mxCell>
        <mxCell id="z8pSvVmS4jZRjeA3G0dC-19" style="edgeStyle=orthogonalEdgeStyle;rounded=0;orthogonalLoop=1;jettySize=auto;html=1;" edge="1" parent="1" source="z8pSvVmS4jZRjeA3G0dC-12" target="z8pSvVmS4jZRjeA3G0dC-17">
          <mxGeometry relative="1" as="geometry" />
        </mxCell>
        <mxCell id="z8pSvVmS4jZRjeA3G0dC-21" style="edgeStyle=orthogonalEdgeStyle;rounded=0;orthogonalLoop=1;jettySize=auto;html=1;entryX=0.583;entryY=0.043;entryDx=0;entryDy=0;entryPerimeter=0;" edge="1" parent="1" source="z8pSvVmS4jZRjeA3G0dC-12" target="z8pSvVmS4jZRjeA3G0dC-20">
          <mxGeometry relative="1" as="geometry" />
        </mxCell>
        <mxCell id="z8pSvVmS4jZRjeA3G0dC-23" style="edgeStyle=orthogonalEdgeStyle;rounded=0;orthogonalLoop=1;jettySize=auto;html=1;entryX=0;entryY=0.5;entryDx=0;entryDy=0;" edge="1" parent="1" source="z8pSvVmS4jZRjeA3G0dC-12" target="z8pSvVmS4jZRjeA3G0dC-22">
          <mxGeometry relative="1" as="geometry" />
        </mxCell>
        <mxCell id="z8pSvVmS4jZRjeA3G0dC-12" value="Materi" style="rounded=1;whiteSpace=wrap;html=1;" vertex="1" parent="1">
          <mxGeometry x="400" y="280" width="120" height="60" as="geometry" />
        </mxCell>
        <mxCell id="z8pSvVmS4jZRjeA3G0dC-13" value="List Materi" style="rounded=1;whiteSpace=wrap;html=1;" vertex="1" parent="1">
          <mxGeometry x="220" y="290" width="120" height="40" as="geometry" />
        </mxCell>
        <mxCell id="z8pSvVmS4jZRjeA3G0dC-17" value="Take Quiz" style="rounded=1;whiteSpace=wrap;html=1;" vertex="1" parent="1">
          <mxGeometry x="300" y="380" width="120" height="40" as="geometry" />
        </mxCell>
        <mxCell id="z8pSvVmS4jZRjeA3G0dC-20" value="Show Materi" style="rounded=1;whiteSpace=wrap;html=1;" vertex="1" parent="1">
          <mxGeometry x="490" y="380" width="120" height="40" as="geometry" />
        </mxCell>
        <mxCell id="z8pSvVmS4jZRjeA3G0dC-22" value="Tracking Progress" style="rounded=1;whiteSpace=wrap;html=1;" vertex="1" parent="1">
          <mxGeometry x="580" y="290" width="120" height="40" as="geometry" />
        </mxCell>
      </root>
    </mxGraphModel>
  </diagram>
</mxfile>
